<?xml version="1.0" encoding="UTF-8" standalone="no"?>
<!DOCTYPE svg PUBLIC "-//W3C//DTD SVG 1.1//EN" "http://www.w3.org/Graphics/SVG/1.1/DTD/svg11.dtd">
<svg width="100%" height="100%" viewBox="0 0 2667 2667" version="1.1" xmlns="http://www.w3.org/2000/svg" xmlns:xlink="http://www.w3.org/1999/xlink" xml:space="preserve" xmlns:serif="http://www.serif.com/" style="fill-rule:evenodd;clip-rule:evenodd;stroke-linejoin:round;stroke-miterlimit:1.41421;">
    <g id="A0050214_orderMock_25011617_2" transform="matrix(1.33333,0,0,-1.33333,0,2666.67)">
        <rect id="path12" x="0.986" y="0" width="1999.01" height="2000" style="fill-rule:nonzero;"/>
        <g id="path16" transform="matrix(1,0,0,1,374.132,776.153)">
            <path d="M0,0L-60.934,-81.245L-67.893,-81.245L-127.471,0.271L-127.471,-135.763L-162.762,-135.763L-162.762,51.31L-122.139,51.31L-63.6,-29.123L-5.083,51.31L35.268,51.31L35.268,-135.763L0,-135.763L0,0Z" style="fill:white;fill-rule:nonzero;"/>
        </g>
        <rect id="path18" x="474.763" y="640.661" width="35.02" height="187.072" style="fill:white;fill-rule:nonzero;"/>
        <g id="path22" transform="matrix(1,0,0,1,697.894,828.005)">
            <path d="M0,0L35.268,0L35.268,-187.344L13.353,-187.344L13.353,-187.614L-84.996,-61.205L-84.996,-187.344L-120.264,-187.344L-120.264,-0.271L-91.684,-0.271L0,-116.265L0,0Z" style="fill:white;fill-rule:nonzero;"/>
        </g>
        <g id="g26" transform="matrix(1,0,0,1,0.986,0)">
            <g id="path34" transform="matrix(1,0,0,1,830.086,674.597)">
                <path d="M0,0L38.476,0C80.974,0 97.806,30.998 96.993,61.477C96.202,90.599 79.099,119.722 38.476,119.722L0,119.722L0,0ZM132.012,61.205C132.803,13.895 103.952,-33.936 38.476,-33.936L-35.02,-33.936L-35.02,153.137L38.476,153.137C102.619,153.137 131.199,107.431 132.012,61.205" style="fill:white;fill-rule:nonzero;"/>
            </g>
            <g id="path38" transform="matrix(1,0,0,1,1135.95,674.597)">
                <path d="M0,0L38.476,0C80.974,0 97.806,30.998 96.992,61.477C96.202,90.599 79.099,119.722 38.476,119.722L0,119.722L0,0ZM132.012,61.205C132.803,13.895 103.951,-33.936 38.476,-33.936L-35.02,-33.936L-35.02,153.137L38.476,153.137C102.618,153.137 131.198,107.431 132.012,61.205" style="fill:white;fill-rule:nonzero;"/>
            </g>
            <g id="path42" transform="matrix(1,0,0,1,1358.75,794.86)">
                <path d="M0,0L0,-59.872L53.704,-59.872C76.161,-59.872 85.786,-44.893 85.786,-29.936C85.786,-14.979 75.891,0 53.704,0L0,0ZM130.408,-154.199L88.452,-154.199L33.935,-91.661L0,-91.661L0,-154.199L-35.291,-154.199L-35.291,33.145C-5.626,33.145 24.039,32.873 53.704,32.873C97.806,32.603 121.055,3.208 121.055,-29.123C121.055,-54.788 109.283,-80.703 73.744,-87.933L130.408,-151.804L130.408,-154.199Z" style="fill:white;fill-rule:nonzero;"/>
            </g>
            <rect id="path44" x="1535.83" y="640.661" width="35.02" height="187.072" style="fill:white;fill-rule:nonzero;"/>
            <g id="path48" transform="matrix(1,0,0,1,1671.3,728.052)">
                <path d="M0,0L52.913,0C98.077,0 97.806,66.267 52.913,66.267L0,66.267L0,0ZM52.913,-32.33L0,-32.33L0,-87.391L-35.269,-87.391L-35.269,99.682C-5.874,99.682 23.52,99.953 52.913,99.953C144.303,99.953 144.574,-32.33 52.913,-32.33" style="fill:white;fill-rule:nonzero;"/>
            </g>
            <g id="path52" transform="matrix(1,0,0,1,788.981,488.86)">
                <path d="M0,0L-21.803,0L-21.803,63.058C-21.803,65.272 -21.531,68.751 -21.012,73.474C-22.187,70.988 -24.152,67.441 -26.909,62.854L-65.023,12.178L-69.723,12.178L-107.837,63.058C-110.594,66.718 -112.627,70.197 -113.938,73.474C-113.531,69.406 -113.351,66.063 -113.351,63.442L-113.351,0L-132.396,0L-132.396,101.354L-113.351,101.354L-65.611,40.081L-18.865,101.354L0,101.354L0,0Z" style="fill:rgb(255,112,0);fill-rule:nonzero;"/>
            </g>
            <g id="path56" transform="matrix(1,0,0,1,943.383,488.86)">
                <path d="M0,0L-104.697,0L-104.697,101.354L-0.994,101.354L-0.994,84.069L-81.132,84.069L-81.132,61.477L-34.387,61.477L-34.387,44.192L-81.132,44.192L-81.132,19.046L0,19.046L0,0Z" style="fill:rgb(255,112,0);fill-rule:nonzero;"/>
            </g>
            <g id="path60" transform="matrix(1,0,0,1,1085.79,540.531)">
                <path d="M0,0C0,21.079 -11.139,31.608 -33.393,31.608L-75.235,31.608L-75.235,-32.625L-44.779,-32.625C-30.388,-32.625 -19.904,-30.795 -13.353,-27.112C-4.45,-22.142 0,-13.104 0,0M24.355,-0.406C24.355,-20.04 16.9,-34.522 1.966,-43.809C-6.552,-49.05 -20.424,-51.671 -39.674,-51.671L-98.8,-51.671L-98.8,49.683L-33.596,49.683C-16.041,49.683 -2.281,45.751 7.659,37.911C18.798,29.258 24.355,16.493 24.355,-0.406" style="fill:rgb(255,112,0);fill-rule:nonzero;"/>
            </g>
            <rect id="path62" x="1153.37" y="488.86" width="23.565" height="101.354" style="fill:rgb(255,112,0);fill-rule:nonzero;"/>
            <g id="path66" transform="matrix(1,0,0,1,1299.11,529.325)">
                <path d="M0,0L-21.802,41.255L-44.396,0L0,0ZM48.53,-40.465L22.006,-40.465L9.828,-18.278L-54.404,-18.278L-66.198,-40.465L-89.763,-40.465L-32.398,60.889L-9.624,60.889L48.53,-40.465Z" style="fill:rgb(255,112,0);fill-rule:nonzero;"/>
            </g>
            <g id="path70" transform="matrix(1,0,0,1,1434.64,995.252)">
                <path d="M0,0C0,-23.69 -17.627,-35.011 -39.171,-25.156L-220.451,57.77C-241.995,67.625 -259.622,95.073 -259.622,118.764L-259.622,163.806C-259.622,187.497 -241.995,214.944 -220.451,224.799L-39.171,307.726C-17.627,317.581 0,306.261 0,282.569L0,0ZM55.238,368.19C55.238,391.881 37.621,403.179 16.09,393.297L-185.099,300.96C-206.631,291.078 -237.046,269.893 -252.688,253.881C-268.33,237.869 -314.86,176.708 -314.86,153.017L-314.86,82.858C-314.86,59.167 -311.594,38.284 -307.602,36.452C-303.609,34.62 -282.726,25.035 -261.194,15.153L16.09,-112.108C37.621,-121.99 55.238,-110.692 55.238,-87.001L55.238,368.19Z" style="fill:rgb(255,112,0);fill-rule:nonzero;"/>
            </g>
            <g id="path74" transform="matrix(1,0,0,1,1021.83,1483.68)">
                <path d="M0,0C90.933,20.673 158.701,14.308 182.181,-24.078C229.832,-101.98 77.104,-282.181 -158.946,-426.566C-245.998,-479.814 -332.213,-520.737 -408.775,-547.298C-315.166,-526.017 -197.008,-476.081 -77.271,-402.841C158.777,-258.455 311.506,-78.254 263.854,-0.353C233.777,48.82 131.04,45.462 0,0" style="fill:rgb(255,112,0);fill-rule:nonzero;"/>
            </g>
            <g id="path78" transform="matrix(1,0,0,1,1133.69,1190.65)">
                <path d="M0,0C-18.384,-15.629 -37.633,-31.074 -57.582,-46.178L-57.582,-188.718C-57.582,-198.742 -54.09,-207.264 -47.069,-214.265C-40.068,-221.286 -31.547,-224.776 -21.542,-224.776C-11.518,-224.776 -3.015,-221.286 4.006,-214.265C11.007,-207.264 14.518,-198.742 14.518,-188.718L14.518,-162.971L0,-156.309L0,0Z" style="fill:white;fill-rule:nonzero;"/>
            </g>
            <g id="path82" transform="matrix(1,0,0,1,1119.78,1292.54)">
                <path d="M0,0C-2.444,0.493 -4.979,0.777 -7.637,0.777C-16.14,0.777 -24.662,-2.733 -33.164,-9.735C-65.713,-38.266 -93.621,-60.557 -116.906,-76.567C-140.172,-92.599 -161.214,-104.612 -179.976,-112.627C-198.756,-120.643 -216.542,-125.518 -233.294,-127.273C-250.085,-129.028 -268.222,-129.905 -287.743,-129.905C-307.285,-129.905 -325.558,-128.892 -342.563,-126.883C-359.608,-124.894 -377.746,-119.882 -397.013,-111.867C-416.301,-103.871 -437.577,-91.857 -460.863,-75.827C-484.128,-59.816 -511.801,-37.778 -543.844,-9.735C-547.861,-6.731 -551.859,-4.235 -555.857,-2.226C-559.874,-0.237 -564.379,0.777 -569.371,0.777C-579.396,0.777 -587.898,-2.733 -594.899,-9.735C-601.92,-16.755 -605.431,-25.258 -605.431,-35.263L-605.431,-290.603C-605.431,-300.627 -601.92,-309.148 -594.899,-316.149C-587.898,-323.171 -579.396,-326.661 -569.371,-326.661C-559.367,-326.661 -550.864,-323.171 -543.844,-316.149C-536.843,-309.148 -533.332,-300.627 -533.332,-290.603L-533.332,-112.627C-510.788,-130.647 -489.394,-145.663 -469.112,-157.676C-448.83,-169.71 -428.821,-179.344 -409.026,-186.598C-389.271,-193.853 -369.496,-198.982 -349.701,-201.985C-329.926,-204.988 -309.274,-206.491 -287.743,-206.491C-274.203,-206.491 -260.806,-205.545 -247.48,-204.17C-138.709,-135.291 -54.542,-62.948 0,0" style="fill:white;fill-rule:nonzero;"/>
            </g>
        </g>
    </g>
</svg>
